<?xml version="1.0" standalone="no"?>
<!DOCTYPE svg PUBLIC "-//W3C//DTD SVG 20010904//EN"
 "http://www.w3.org/TR/2001/REC-SVG-20010904/DTD/svg10.dtd">
<svg version="1.0" xmlns="http://www.w3.org/2000/svg"
 width="245.000000pt" height="245.000000pt" viewBox="0 0 245.000000 245.000000"
 preserveAspectRatio="xMidYMid meet">
<metadata>
Created by potrace 1.14, written by Peter Selinger 2001-2017
</metadata>
<g transform="translate(0.000000,245.000000) scale(0.100000,-0.100000)"
fill="#000000" stroke="none">
<path d="M40 1245 l0 -1115 360 0 360 0 0 254 c0 218 2 257 16 270 14 14 75
16 519 16 325 0 506 4 510 10 3 6 29 10 56 10 34 0 51 4 55 15 3 8 21 17 40
21 18 3 38 12 45 20 6 8 17 14 24 14 6 0 20 9 30 20 10 11 24 20 32 20 7 0 13
5 13 10 0 6 5 10 11 10 17 0 149 137 149 154 0 9 4 16 9 16 11 0 41 56 41 75
0 7 6 15 14 18 8 3 17 20 21 38 4 19 11 40 15 49 5 8 13 41 20 73 6 31 16 57
21 57 5 0 9 86 9 206 0 165 -3 208 -14 220 -8 8 -18 36 -21 62 -3 26 -10 55
-16 64 -5 10 -9 24 -9 32 0 7 -9 25 -20 39 -11 14 -20 33 -20 42 0 9 -11 28
-25 43 -14 15 -25 33 -25 40 0 14 -122 142 -136 142 -4 0 -14 7 -23 15 -9 8
-26 23 -38 35 -13 11 -29 20 -37 20 -8 0 -18 5 -21 10 -3 6 -15 10 -26 10 -10
0 -19 5 -19 10 0 6 -9 10 -20 10 -11 0 -20 5 -20 10 0 6 -17 10 -37 10 -21 0
-51 8 -68 18 -28 16 -94 17 -902 20 l-873 2 0 -1115z m1595 392 c35 -37 35
-38 35 -128 l0 -91 -37 -34 -37 -34 -416 2 -415 3 -3 150 c-2 134 -1 151 15
163 14 10 104 12 420 10 l402 -3 36 -38z"/>
</g>
</svg>
